<svg xmlns="http://www.w3.org/2000/svg" width="256" height="256" viewBox="0 0 256 256">
  <defs>
    <linearGradient id="bg" x1="0" y1="0" x2="0" y2="1">
      <stop offset="0" stop-color="#3c2a1d"/>
      <stop offset="1" stop-color="#211610"/>
    </linearGradient>
    <linearGradient id="dough" x1="0" y1="0" x2="0.45" y2="1">
      <stop offset="0" stop-color="#F3BE6E"/>
      <stop offset="0.55" stop-color="#DB913E"/>
      <stop offset="1" stop-color="#B96C26"/>
    </linearGradient>
    <radialGradient id="glow" cx="0.35" cy="0.28" r="0.72">
      <stop offset="0" stop-color="#FFE6B4" stop-opacity="0.85"/>
      <stop offset="1" stop-color="#FFE6B4" stop-opacity="0"/>
    </radialGradient>
  </defs>
  <rect width="256" height="256" rx="56" fill="url(#bg)"/>
  <g transform="rotate(45 128 130)">
    <rect x="64" y="66" width="128" height="128" rx="44" fill="#8f5015" opacity="0.45"/>
    <rect x="62" y="62" width="128" height="128" rx="44" fill="url(#dough)"/>
    <rect x="62" y="62" width="128" height="128" rx="44" fill="url(#glow)"/>
  </g>
  <g fill="#FFFFFF">
    <circle cx="108" cy="94" r="6" opacity="0.95"/>
    <circle cx="140" cy="102" r="5" opacity="0.9"/>
    <circle cx="94" cy="120" r="4.5" opacity="0.82"/>
    <circle cx="127" cy="126" r="7" opacity="0.95"/>
    <circle cx="160" cy="122" r="4.2" opacity="0.8"/>
    <circle cx="113" cy="150" r="5.5" opacity="0.9"/>
    <circle cx="147" cy="154" r="4.6" opacity="0.85"/>
    <circle cx="128" cy="176" r="4" opacity="0.72"/>
    <circle cx="176" cy="146" r="3.6" opacity="0.68"/>
    <circle cx="82" cy="142" r="3.6" opacity="0.68"/>
  </g>
</svg>
